<mxfile host="app.diagrams.net" modified="2020-12-11T14:24:32.847Z" agent="5.0 (Windows NT 10.0; Win64; x64) AppleWebKit/537.36 (KHTML, like Gecko) Chrome/87.0.4280.88 Safari/537.36" etag="iCGq6C6JtP8C17Gj6-sZ" version="14.0.1" type="github">
  <diagram id="R2lEEEUBdFMjLlhIrx00" name="Page-1">
    <mxGraphModel dx="1422" dy="762" grid="1" gridSize="10" guides="1" tooltips="1" connect="1" arrows="1" fold="1" page="1" pageScale="1" pageWidth="583" pageHeight="827" math="0" shadow="0" extFonts="Permanent Marker^https://fonts.googleapis.com/css?family=Permanent+Marker">
      <root>
        <mxCell id="0" />
        <mxCell id="1" parent="0" />
        <mxCell id="cPtPqXqM4NVwdwL7rHtW-1" value="最新消息" style="shape=table;startSize=30;container=1;collapsible=1;childLayout=tableLayout;fixedRows=1;rowLines=0;fontStyle=1;align=center;resizeLast=1;rounded=1;" vertex="1" parent="1">
          <mxGeometry x="860" y="180" width="180" height="180" as="geometry" />
        </mxCell>
        <mxCell id="cPtPqXqM4NVwdwL7rHtW-2" value="" style="shape=partialRectangle;collapsible=0;dropTarget=0;pointerEvents=0;fillColor=none;top=0;left=0;bottom=1;right=0;points=[[0,0.5],[1,0.5]];portConstraint=eastwest;rounded=1;" vertex="1" parent="cPtPqXqM4NVwdwL7rHtW-1">
          <mxGeometry y="30" width="180" height="20" as="geometry" />
        </mxCell>
        <mxCell id="cPtPqXqM4NVwdwL7rHtW-3" value="PK" style="shape=partialRectangle;connectable=0;fillColor=none;top=0;left=0;bottom=0;right=0;fontStyle=1;overflow=hidden;rounded=1;" vertex="1" parent="cPtPqXqM4NVwdwL7rHtW-2">
          <mxGeometry width="30" height="20" as="geometry" />
        </mxCell>
        <mxCell id="cPtPqXqM4NVwdwL7rHtW-4" value="new_id" style="shape=partialRectangle;connectable=0;fillColor=none;top=0;left=0;bottom=0;right=0;align=left;spacingLeft=6;fontStyle=5;overflow=hidden;rounded=1;" vertex="1" parent="cPtPqXqM4NVwdwL7rHtW-2">
          <mxGeometry x="30" width="150" height="20" as="geometry" />
        </mxCell>
        <mxCell id="cPtPqXqM4NVwdwL7rHtW-5" value="" style="shape=partialRectangle;collapsible=0;dropTarget=0;pointerEvents=0;fillColor=none;top=0;left=0;bottom=0;right=0;points=[[0,0.5],[1,0.5]];portConstraint=eastwest;rounded=1;" vertex="1" parent="cPtPqXqM4NVwdwL7rHtW-1">
          <mxGeometry y="50" width="180" height="30" as="geometry" />
        </mxCell>
        <mxCell id="cPtPqXqM4NVwdwL7rHtW-6" value="" style="shape=partialRectangle;connectable=0;fillColor=none;top=0;left=0;bottom=0;right=0;editable=1;overflow=hidden;rounded=1;" vertex="1" parent="cPtPqXqM4NVwdwL7rHtW-5">
          <mxGeometry width="30" height="30" as="geometry" />
        </mxCell>
        <mxCell id="cPtPqXqM4NVwdwL7rHtW-7" value="id" style="shape=partialRectangle;connectable=0;fillColor=none;top=0;left=0;bottom=0;right=0;align=left;spacingLeft=6;overflow=hidden;rounded=1;" vertex="1" parent="cPtPqXqM4NVwdwL7rHtW-5">
          <mxGeometry x="30" width="150" height="30" as="geometry" />
        </mxCell>
        <mxCell id="cPtPqXqM4NVwdwL7rHtW-8" value="" style="shape=partialRectangle;collapsible=0;dropTarget=0;pointerEvents=0;fillColor=none;top=0;left=0;bottom=0;right=0;points=[[0,0.5],[1,0.5]];portConstraint=eastwest;rounded=1;" vertex="1" parent="cPtPqXqM4NVwdwL7rHtW-1">
          <mxGeometry y="80" width="180" height="30" as="geometry" />
        </mxCell>
        <mxCell id="cPtPqXqM4NVwdwL7rHtW-9" value="" style="shape=partialRectangle;connectable=0;fillColor=none;top=0;left=0;bottom=0;right=0;editable=1;overflow=hidden;rounded=1;" vertex="1" parent="cPtPqXqM4NVwdwL7rHtW-8">
          <mxGeometry width="30" height="30" as="geometry" />
        </mxCell>
        <mxCell id="cPtPqXqM4NVwdwL7rHtW-10" value="user_id" style="shape=partialRectangle;connectable=0;fillColor=none;top=0;left=0;bottom=0;right=0;align=left;spacingLeft=6;overflow=hidden;rounded=1;" vertex="1" parent="cPtPqXqM4NVwdwL7rHtW-8">
          <mxGeometry x="30" width="150" height="30" as="geometry" />
        </mxCell>
        <mxCell id="cPtPqXqM4NVwdwL7rHtW-11" value="" style="shape=partialRectangle;collapsible=0;dropTarget=0;pointerEvents=0;fillColor=none;top=0;left=0;bottom=0;right=0;points=[[0,0.5],[1,0.5]];portConstraint=eastwest;rounded=1;" vertex="1" parent="cPtPqXqM4NVwdwL7rHtW-1">
          <mxGeometry y="110" width="180" height="30" as="geometry" />
        </mxCell>
        <mxCell id="cPtPqXqM4NVwdwL7rHtW-12" value="" style="shape=partialRectangle;connectable=0;fillColor=none;top=0;left=0;bottom=0;right=0;editable=1;overflow=hidden;rounded=1;" vertex="1" parent="cPtPqXqM4NVwdwL7rHtW-11">
          <mxGeometry width="30" height="30" as="geometry" />
        </mxCell>
        <mxCell id="cPtPqXqM4NVwdwL7rHtW-13" value="create_date" style="shape=partialRectangle;connectable=0;fillColor=none;top=0;left=0;bottom=0;right=0;align=left;spacingLeft=6;overflow=hidden;rounded=1;" vertex="1" parent="cPtPqXqM4NVwdwL7rHtW-11">
          <mxGeometry x="30" width="150" height="30" as="geometry" />
        </mxCell>
        <mxCell id="cPtPqXqM4NVwdwL7rHtW-100" value="" style="shape=partialRectangle;collapsible=0;dropTarget=0;pointerEvents=0;fillColor=none;top=0;left=0;bottom=0;right=0;points=[[0,0.5],[1,0.5]];portConstraint=eastwest;rounded=1;" vertex="1" parent="cPtPqXqM4NVwdwL7rHtW-1">
          <mxGeometry y="140" width="180" height="30" as="geometry" />
        </mxCell>
        <mxCell id="cPtPqXqM4NVwdwL7rHtW-101" value="" style="shape=partialRectangle;connectable=0;fillColor=none;top=0;left=0;bottom=0;right=0;editable=1;overflow=hidden;rounded=1;" vertex="1" parent="cPtPqXqM4NVwdwL7rHtW-100">
          <mxGeometry width="30" height="30" as="geometry" />
        </mxCell>
        <mxCell id="cPtPqXqM4NVwdwL7rHtW-102" value="content" style="shape=partialRectangle;connectable=0;fillColor=none;top=0;left=0;bottom=0;right=0;align=left;spacingLeft=6;overflow=hidden;rounded=1;" vertex="1" parent="cPtPqXqM4NVwdwL7rHtW-100">
          <mxGeometry x="30" width="150" height="30" as="geometry" />
        </mxCell>
        <mxCell id="cPtPqXqM4NVwdwL7rHtW-14" value="user" style="shape=table;startSize=30;container=1;collapsible=1;childLayout=tableLayout;fixedRows=1;rowLines=0;fontStyle=1;align=center;resizeLast=1;rounded=1;" vertex="1" parent="1">
          <mxGeometry x="430" y="320" width="180" height="160" as="geometry" />
        </mxCell>
        <mxCell id="cPtPqXqM4NVwdwL7rHtW-15" value="" style="shape=partialRectangle;collapsible=0;dropTarget=0;pointerEvents=0;fillColor=none;top=0;left=0;bottom=1;right=0;points=[[0,0.5],[1,0.5]];portConstraint=eastwest;rounded=1;" vertex="1" parent="cPtPqXqM4NVwdwL7rHtW-14">
          <mxGeometry y="30" width="180" height="30" as="geometry" />
        </mxCell>
        <mxCell id="cPtPqXqM4NVwdwL7rHtW-16" value="PK" style="shape=partialRectangle;connectable=0;fillColor=none;top=0;left=0;bottom=0;right=0;fontStyle=1;overflow=hidden;rounded=1;" vertex="1" parent="cPtPqXqM4NVwdwL7rHtW-15">
          <mxGeometry width="30" height="30" as="geometry" />
        </mxCell>
        <mxCell id="cPtPqXqM4NVwdwL7rHtW-17" value="user_id" style="shape=partialRectangle;connectable=0;fillColor=none;top=0;left=0;bottom=0;right=0;align=left;spacingLeft=6;fontStyle=5;overflow=hidden;rounded=1;" vertex="1" parent="cPtPqXqM4NVwdwL7rHtW-15">
          <mxGeometry x="30" width="150" height="30" as="geometry" />
        </mxCell>
        <mxCell id="cPtPqXqM4NVwdwL7rHtW-18" value="" style="shape=partialRectangle;collapsible=0;dropTarget=0;pointerEvents=0;fillColor=none;top=0;left=0;bottom=0;right=0;points=[[0,0.5],[1,0.5]];portConstraint=eastwest;rounded=1;" vertex="1" parent="cPtPqXqM4NVwdwL7rHtW-14">
          <mxGeometry y="60" width="180" height="30" as="geometry" />
        </mxCell>
        <mxCell id="cPtPqXqM4NVwdwL7rHtW-19" value="" style="shape=partialRectangle;connectable=0;fillColor=none;top=0;left=0;bottom=0;right=0;editable=1;overflow=hidden;rounded=1;" vertex="1" parent="cPtPqXqM4NVwdwL7rHtW-18">
          <mxGeometry width="30" height="30" as="geometry" />
        </mxCell>
        <mxCell id="cPtPqXqM4NVwdwL7rHtW-20" value="id" style="shape=partialRectangle;connectable=0;fillColor=none;top=0;left=0;bottom=0;right=0;align=left;spacingLeft=6;overflow=hidden;rounded=1;" vertex="1" parent="cPtPqXqM4NVwdwL7rHtW-18">
          <mxGeometry x="30" width="150" height="30" as="geometry" />
        </mxCell>
        <mxCell id="cPtPqXqM4NVwdwL7rHtW-21" value="" style="shape=partialRectangle;collapsible=0;dropTarget=0;pointerEvents=0;fillColor=none;top=0;left=0;bottom=0;right=0;points=[[0,0.5],[1,0.5]];portConstraint=eastwest;rounded=1;" vertex="1" parent="cPtPqXqM4NVwdwL7rHtW-14">
          <mxGeometry y="90" width="180" height="30" as="geometry" />
        </mxCell>
        <mxCell id="cPtPqXqM4NVwdwL7rHtW-22" value="" style="shape=partialRectangle;connectable=0;fillColor=none;top=0;left=0;bottom=0;right=0;editable=1;overflow=hidden;rounded=1;" vertex="1" parent="cPtPqXqM4NVwdwL7rHtW-21">
          <mxGeometry width="30" height="30" as="geometry" />
        </mxCell>
        <mxCell id="cPtPqXqM4NVwdwL7rHtW-23" value="user_name" style="shape=partialRectangle;connectable=0;fillColor=none;top=0;left=0;bottom=0;right=0;align=left;spacingLeft=6;overflow=hidden;rounded=1;" vertex="1" parent="cPtPqXqM4NVwdwL7rHtW-21">
          <mxGeometry x="30" width="150" height="30" as="geometry" />
        </mxCell>
        <mxCell id="cPtPqXqM4NVwdwL7rHtW-24" value="" style="shape=partialRectangle;collapsible=0;dropTarget=0;pointerEvents=0;fillColor=none;top=0;left=0;bottom=0;right=0;points=[[0,0.5],[1,0.5]];portConstraint=eastwest;rounded=1;" vertex="1" parent="cPtPqXqM4NVwdwL7rHtW-14">
          <mxGeometry y="120" width="180" height="30" as="geometry" />
        </mxCell>
        <mxCell id="cPtPqXqM4NVwdwL7rHtW-25" value="" style="shape=partialRectangle;connectable=0;fillColor=none;top=0;left=0;bottom=0;right=0;editable=1;overflow=hidden;rounded=1;" vertex="1" parent="cPtPqXqM4NVwdwL7rHtW-24">
          <mxGeometry width="30" height="30" as="geometry" />
        </mxCell>
        <mxCell id="cPtPqXqM4NVwdwL7rHtW-26" value="join_date" style="shape=partialRectangle;connectable=0;fillColor=none;top=0;left=0;bottom=0;right=0;align=left;spacingLeft=6;overflow=hidden;rounded=1;" vertex="1" parent="cPtPqXqM4NVwdwL7rHtW-24">
          <mxGeometry x="30" width="150" height="30" as="geometry" />
        </mxCell>
        <mxCell id="cPtPqXqM4NVwdwL7rHtW-27" value="產學合作" style="shape=table;startSize=30;container=1;collapsible=1;childLayout=tableLayout;fixedRows=1;rowLines=0;fontStyle=1;align=center;resizeLast=1;rounded=1;" vertex="1" parent="1">
          <mxGeometry x="460" y="640" width="180" height="160" as="geometry" />
        </mxCell>
        <mxCell id="cPtPqXqM4NVwdwL7rHtW-28" value="" style="shape=partialRectangle;collapsible=0;dropTarget=0;pointerEvents=0;fillColor=none;top=0;left=0;bottom=1;right=0;points=[[0,0.5],[1,0.5]];portConstraint=eastwest;rounded=1;" vertex="1" parent="cPtPqXqM4NVwdwL7rHtW-27">
          <mxGeometry y="30" width="180" height="30" as="geometry" />
        </mxCell>
        <mxCell id="cPtPqXqM4NVwdwL7rHtW-29" value="PK" style="shape=partialRectangle;connectable=0;fillColor=none;top=0;left=0;bottom=0;right=0;fontStyle=1;overflow=hidden;rounded=1;" vertex="1" parent="cPtPqXqM4NVwdwL7rHtW-28">
          <mxGeometry width="30" height="30" as="geometry" />
        </mxCell>
        <mxCell id="cPtPqXqM4NVwdwL7rHtW-30" value="job_id" style="shape=partialRectangle;connectable=0;fillColor=none;top=0;left=0;bottom=0;right=0;align=left;spacingLeft=6;fontStyle=5;overflow=hidden;rounded=1;" vertex="1" parent="cPtPqXqM4NVwdwL7rHtW-28">
          <mxGeometry x="30" width="150" height="30" as="geometry" />
        </mxCell>
        <mxCell id="cPtPqXqM4NVwdwL7rHtW-37" value="" style="shape=partialRectangle;collapsible=0;dropTarget=0;pointerEvents=0;fillColor=none;top=0;left=0;bottom=0;right=0;points=[[0,0.5],[1,0.5]];portConstraint=eastwest;rounded=1;" vertex="1" parent="cPtPqXqM4NVwdwL7rHtW-27">
          <mxGeometry y="60" width="180" height="30" as="geometry" />
        </mxCell>
        <mxCell id="cPtPqXqM4NVwdwL7rHtW-38" value="" style="shape=partialRectangle;connectable=0;fillColor=none;top=0;left=0;bottom=0;right=0;editable=1;overflow=hidden;rounded=1;" vertex="1" parent="cPtPqXqM4NVwdwL7rHtW-37">
          <mxGeometry width="30" height="30" as="geometry" />
        </mxCell>
        <mxCell id="cPtPqXqM4NVwdwL7rHtW-39" value="id" style="shape=partialRectangle;connectable=0;fillColor=none;top=0;left=0;bottom=0;right=0;align=left;spacingLeft=6;overflow=hidden;rounded=1;" vertex="1" parent="cPtPqXqM4NVwdwL7rHtW-37">
          <mxGeometry x="30" width="150" height="30" as="geometry" />
        </mxCell>
        <mxCell id="cPtPqXqM4NVwdwL7rHtW-31" value="" style="shape=partialRectangle;collapsible=0;dropTarget=0;pointerEvents=0;fillColor=none;top=0;left=0;bottom=0;right=0;points=[[0,0.5],[1,0.5]];portConstraint=eastwest;rounded=1;" vertex="1" parent="cPtPqXqM4NVwdwL7rHtW-27">
          <mxGeometry y="90" width="180" height="30" as="geometry" />
        </mxCell>
        <mxCell id="cPtPqXqM4NVwdwL7rHtW-32" value="" style="shape=partialRectangle;connectable=0;fillColor=none;top=0;left=0;bottom=0;right=0;editable=1;overflow=hidden;rounded=1;" vertex="1" parent="cPtPqXqM4NVwdwL7rHtW-31">
          <mxGeometry width="30" height="30" as="geometry" />
        </mxCell>
        <mxCell id="cPtPqXqM4NVwdwL7rHtW-33" value="article_id" style="shape=partialRectangle;connectable=0;fillColor=none;top=0;left=0;bottom=0;right=0;align=left;spacingLeft=6;overflow=hidden;rounded=1;" vertex="1" parent="cPtPqXqM4NVwdwL7rHtW-31">
          <mxGeometry x="30" width="150" height="30" as="geometry" />
        </mxCell>
        <mxCell id="cPtPqXqM4NVwdwL7rHtW-34" value="" style="shape=partialRectangle;collapsible=0;dropTarget=0;pointerEvents=0;fillColor=none;top=0;left=0;bottom=0;right=0;points=[[0,0.5],[1,0.5]];portConstraint=eastwest;rounded=1;" vertex="1" parent="cPtPqXqM4NVwdwL7rHtW-27">
          <mxGeometry y="120" width="180" height="30" as="geometry" />
        </mxCell>
        <mxCell id="cPtPqXqM4NVwdwL7rHtW-35" value="" style="shape=partialRectangle;connectable=0;fillColor=none;top=0;left=0;bottom=0;right=0;editable=1;overflow=hidden;rounded=1;" vertex="1" parent="cPtPqXqM4NVwdwL7rHtW-34">
          <mxGeometry width="30" height="30" as="geometry" />
        </mxCell>
        <mxCell id="cPtPqXqM4NVwdwL7rHtW-36" value="job_type" style="shape=partialRectangle;connectable=0;fillColor=none;top=0;left=0;bottom=0;right=0;align=left;spacingLeft=6;overflow=hidden;rounded=1;" vertex="1" parent="cPtPqXqM4NVwdwL7rHtW-34">
          <mxGeometry x="30" width="150" height="30" as="geometry" />
        </mxCell>
        <mxCell id="cPtPqXqM4NVwdwL7rHtW-40" value="團隊介紹" style="shape=table;startSize=30;container=1;collapsible=1;childLayout=tableLayout;fixedRows=1;rowLines=0;fontStyle=1;align=center;resizeLast=1;rounded=1;" vertex="1" parent="1">
          <mxGeometry x="875" y="530" width="180" height="220" as="geometry" />
        </mxCell>
        <mxCell id="cPtPqXqM4NVwdwL7rHtW-41" value="" style="shape=partialRectangle;collapsible=0;dropTarget=0;pointerEvents=0;fillColor=none;top=0;left=0;bottom=1;right=0;points=[[0,0.5],[1,0.5]];portConstraint=eastwest;rounded=1;" vertex="1" parent="cPtPqXqM4NVwdwL7rHtW-40">
          <mxGeometry y="30" width="180" height="30" as="geometry" />
        </mxCell>
        <mxCell id="cPtPqXqM4NVwdwL7rHtW-42" value="PK" style="shape=partialRectangle;connectable=0;fillColor=none;top=0;left=0;bottom=0;right=0;fontStyle=1;overflow=hidden;rounded=1;" vertex="1" parent="cPtPqXqM4NVwdwL7rHtW-41">
          <mxGeometry width="30" height="30" as="geometry" />
        </mxCell>
        <mxCell id="cPtPqXqM4NVwdwL7rHtW-43" value="team_id" style="shape=partialRectangle;connectable=0;fillColor=none;top=0;left=0;bottom=0;right=0;align=left;spacingLeft=6;fontStyle=5;overflow=hidden;rounded=1;" vertex="1" parent="cPtPqXqM4NVwdwL7rHtW-41">
          <mxGeometry x="30" width="150" height="30" as="geometry" />
        </mxCell>
        <mxCell id="cPtPqXqM4NVwdwL7rHtW-44" value="" style="shape=partialRectangle;collapsible=0;dropTarget=0;pointerEvents=0;fillColor=none;top=0;left=0;bottom=0;right=0;points=[[0,0.5],[1,0.5]];portConstraint=eastwest;rounded=1;" vertex="1" parent="cPtPqXqM4NVwdwL7rHtW-40">
          <mxGeometry y="60" width="180" height="30" as="geometry" />
        </mxCell>
        <mxCell id="cPtPqXqM4NVwdwL7rHtW-45" value="" style="shape=partialRectangle;connectable=0;fillColor=none;top=0;left=0;bottom=0;right=0;editable=1;overflow=hidden;rounded=1;" vertex="1" parent="cPtPqXqM4NVwdwL7rHtW-44">
          <mxGeometry width="30" height="30" as="geometry" />
        </mxCell>
        <mxCell id="cPtPqXqM4NVwdwL7rHtW-46" value="user_id" style="shape=partialRectangle;connectable=0;fillColor=none;top=0;left=0;bottom=0;right=0;align=left;spacingLeft=6;overflow=hidden;rounded=1;" vertex="1" parent="cPtPqXqM4NVwdwL7rHtW-44">
          <mxGeometry x="30" width="150" height="30" as="geometry" />
        </mxCell>
        <mxCell id="cPtPqXqM4NVwdwL7rHtW-47" value="" style="shape=partialRectangle;collapsible=0;dropTarget=0;pointerEvents=0;fillColor=none;top=0;left=0;bottom=0;right=0;points=[[0,0.5],[1,0.5]];portConstraint=eastwest;rounded=1;" vertex="1" parent="cPtPqXqM4NVwdwL7rHtW-40">
          <mxGeometry y="90" width="180" height="30" as="geometry" />
        </mxCell>
        <mxCell id="cPtPqXqM4NVwdwL7rHtW-48" value="" style="shape=partialRectangle;connectable=0;fillColor=none;top=0;left=0;bottom=0;right=0;editable=1;overflow=hidden;rounded=1;" vertex="1" parent="cPtPqXqM4NVwdwL7rHtW-47">
          <mxGeometry width="30" height="30" as="geometry" />
        </mxCell>
        <mxCell id="cPtPqXqM4NVwdwL7rHtW-49" value="team_job" style="shape=partialRectangle;connectable=0;fillColor=none;top=0;left=0;bottom=0;right=0;align=left;spacingLeft=6;overflow=hidden;rounded=1;" vertex="1" parent="cPtPqXqM4NVwdwL7rHtW-47">
          <mxGeometry x="30" width="150" height="30" as="geometry" />
        </mxCell>
        <mxCell id="cPtPqXqM4NVwdwL7rHtW-50" value="" style="shape=partialRectangle;collapsible=0;dropTarget=0;pointerEvents=0;fillColor=none;top=0;left=0;bottom=0;right=0;points=[[0,0.5],[1,0.5]];portConstraint=eastwest;rounded=1;" vertex="1" parent="cPtPqXqM4NVwdwL7rHtW-40">
          <mxGeometry y="120" width="180" height="30" as="geometry" />
        </mxCell>
        <mxCell id="cPtPqXqM4NVwdwL7rHtW-51" value="" style="shape=partialRectangle;connectable=0;fillColor=none;top=0;left=0;bottom=0;right=0;editable=1;overflow=hidden;rounded=1;" vertex="1" parent="cPtPqXqM4NVwdwL7rHtW-50">
          <mxGeometry width="30" height="30" as="geometry" />
        </mxCell>
        <mxCell id="cPtPqXqM4NVwdwL7rHtW-52" value="team_goal" style="shape=partialRectangle;connectable=0;fillColor=none;top=0;left=0;bottom=0;right=0;align=left;spacingLeft=6;overflow=hidden;rounded=1;" vertex="1" parent="cPtPqXqM4NVwdwL7rHtW-50">
          <mxGeometry x="30" width="150" height="30" as="geometry" />
        </mxCell>
        <mxCell id="cPtPqXqM4NVwdwL7rHtW-93" value="" style="shape=partialRectangle;collapsible=0;dropTarget=0;pointerEvents=0;fillColor=none;top=0;left=0;bottom=0;right=0;points=[[0,0.5],[1,0.5]];portConstraint=eastwest;rounded=1;" vertex="1" parent="cPtPqXqM4NVwdwL7rHtW-40">
          <mxGeometry y="150" width="180" height="30" as="geometry" />
        </mxCell>
        <mxCell id="cPtPqXqM4NVwdwL7rHtW-94" value="" style="shape=partialRectangle;connectable=0;fillColor=none;top=0;left=0;bottom=0;right=0;editable=1;overflow=hidden;rounded=1;" vertex="1" parent="cPtPqXqM4NVwdwL7rHtW-93">
          <mxGeometry width="30" height="30" as="geometry" />
        </mxCell>
        <mxCell id="cPtPqXqM4NVwdwL7rHtW-95" value="build_date" style="shape=partialRectangle;connectable=0;fillColor=none;top=0;left=0;bottom=0;right=0;align=left;spacingLeft=6;overflow=hidden;rounded=1;" vertex="1" parent="cPtPqXqM4NVwdwL7rHtW-93">
          <mxGeometry x="30" width="150" height="30" as="geometry" />
        </mxCell>
        <mxCell id="cPtPqXqM4NVwdwL7rHtW-96" value="" style="shape=partialRectangle;collapsible=0;dropTarget=0;pointerEvents=0;fillColor=none;top=0;left=0;bottom=0;right=0;points=[[0,0.5],[1,0.5]];portConstraint=eastwest;rounded=1;" vertex="1" parent="cPtPqXqM4NVwdwL7rHtW-40">
          <mxGeometry y="180" width="180" height="30" as="geometry" />
        </mxCell>
        <mxCell id="cPtPqXqM4NVwdwL7rHtW-97" value="" style="shape=partialRectangle;connectable=0;fillColor=none;top=0;left=0;bottom=0;right=0;editable=1;overflow=hidden;rounded=1;" vertex="1" parent="cPtPqXqM4NVwdwL7rHtW-96">
          <mxGeometry width="30" height="30" as="geometry" />
        </mxCell>
        <mxCell id="cPtPqXqM4NVwdwL7rHtW-98" value="" style="shape=partialRectangle;connectable=0;fillColor=none;top=0;left=0;bottom=0;right=0;align=left;spacingLeft=6;overflow=hidden;rounded=1;" vertex="1" parent="cPtPqXqM4NVwdwL7rHtW-96">
          <mxGeometry x="30" width="150" height="30" as="geometry" />
        </mxCell>
        <mxCell id="cPtPqXqM4NVwdwL7rHtW-53" value="blog" style="shape=table;startSize=30;container=1;collapsible=1;childLayout=tableLayout;fixedRows=1;rowLines=0;fontStyle=1;align=center;resizeLast=1;rounded=1;" vertex="1" parent="1">
          <mxGeometry x="60" y="120" width="180" height="150" as="geometry" />
        </mxCell>
        <mxCell id="cPtPqXqM4NVwdwL7rHtW-54" value="" style="shape=partialRectangle;collapsible=0;dropTarget=0;pointerEvents=0;fillColor=none;top=0;left=0;bottom=1;right=0;points=[[0,0.5],[1,0.5]];portConstraint=eastwest;rounded=1;" vertex="1" parent="cPtPqXqM4NVwdwL7rHtW-53">
          <mxGeometry y="30" width="180" height="30" as="geometry" />
        </mxCell>
        <mxCell id="cPtPqXqM4NVwdwL7rHtW-55" value="PK" style="shape=partialRectangle;connectable=0;fillColor=none;top=0;left=0;bottom=0;right=0;fontStyle=1;overflow=hidden;rounded=1;" vertex="1" parent="cPtPqXqM4NVwdwL7rHtW-54">
          <mxGeometry width="30" height="30" as="geometry" />
        </mxCell>
        <mxCell id="cPtPqXqM4NVwdwL7rHtW-56" value="blog_id" style="shape=partialRectangle;connectable=0;fillColor=none;top=0;left=0;bottom=0;right=0;align=left;spacingLeft=6;fontStyle=5;overflow=hidden;rounded=1;" vertex="1" parent="cPtPqXqM4NVwdwL7rHtW-54">
          <mxGeometry x="30" width="150" height="30" as="geometry" />
        </mxCell>
        <mxCell id="cPtPqXqM4NVwdwL7rHtW-57" value="" style="shape=partialRectangle;collapsible=0;dropTarget=0;pointerEvents=0;fillColor=none;top=0;left=0;bottom=0;right=0;points=[[0,0.5],[1,0.5]];portConstraint=eastwest;rounded=1;" vertex="1" parent="cPtPqXqM4NVwdwL7rHtW-53">
          <mxGeometry y="60" width="180" height="30" as="geometry" />
        </mxCell>
        <mxCell id="cPtPqXqM4NVwdwL7rHtW-58" value="" style="shape=partialRectangle;connectable=0;fillColor=none;top=0;left=0;bottom=0;right=0;editable=1;overflow=hidden;rounded=1;" vertex="1" parent="cPtPqXqM4NVwdwL7rHtW-57">
          <mxGeometry width="30" height="30" as="geometry" />
        </mxCell>
        <mxCell id="cPtPqXqM4NVwdwL7rHtW-59" value="id" style="shape=partialRectangle;connectable=0;fillColor=none;top=0;left=0;bottom=0;right=0;align=left;spacingLeft=6;overflow=hidden;rounded=1;" vertex="1" parent="cPtPqXqM4NVwdwL7rHtW-57">
          <mxGeometry x="30" width="150" height="30" as="geometry" />
        </mxCell>
        <mxCell id="cPtPqXqM4NVwdwL7rHtW-60" value="" style="shape=partialRectangle;collapsible=0;dropTarget=0;pointerEvents=0;fillColor=none;top=0;left=0;bottom=0;right=0;points=[[0,0.5],[1,0.5]];portConstraint=eastwest;rounded=1;" vertex="1" parent="cPtPqXqM4NVwdwL7rHtW-53">
          <mxGeometry y="90" width="180" height="20" as="geometry" />
        </mxCell>
        <mxCell id="cPtPqXqM4NVwdwL7rHtW-61" value="" style="shape=partialRectangle;connectable=0;fillColor=none;top=0;left=0;bottom=0;right=0;editable=1;overflow=hidden;rounded=1;" vertex="1" parent="cPtPqXqM4NVwdwL7rHtW-60">
          <mxGeometry width="30" height="20" as="geometry" />
        </mxCell>
        <mxCell id="cPtPqXqM4NVwdwL7rHtW-62" value="article_id" style="shape=partialRectangle;connectable=0;fillColor=none;top=0;left=0;bottom=0;right=0;align=left;spacingLeft=6;overflow=hidden;rounded=1;" vertex="1" parent="cPtPqXqM4NVwdwL7rHtW-60">
          <mxGeometry x="30" width="150" height="20" as="geometry" />
        </mxCell>
        <mxCell id="cPtPqXqM4NVwdwL7rHtW-63" value="" style="shape=partialRectangle;collapsible=0;dropTarget=0;pointerEvents=0;fillColor=none;top=0;left=0;bottom=0;right=0;points=[[0,0.5],[1,0.5]];portConstraint=eastwest;rounded=1;" vertex="1" parent="cPtPqXqM4NVwdwL7rHtW-53">
          <mxGeometry y="110" width="180" height="30" as="geometry" />
        </mxCell>
        <mxCell id="cPtPqXqM4NVwdwL7rHtW-64" value="" style="shape=partialRectangle;connectable=0;fillColor=none;top=0;left=0;bottom=0;right=0;editable=1;overflow=hidden;rounded=1;" vertex="1" parent="cPtPqXqM4NVwdwL7rHtW-63">
          <mxGeometry width="30" height="30" as="geometry" />
        </mxCell>
        <mxCell id="cPtPqXqM4NVwdwL7rHtW-65" value="user_id" style="shape=partialRectangle;connectable=0;fillColor=none;top=0;left=0;bottom=0;right=0;align=left;spacingLeft=6;overflow=hidden;rounded=1;" vertex="1" parent="cPtPqXqM4NVwdwL7rHtW-63">
          <mxGeometry x="30" width="150" height="30" as="geometry" />
        </mxCell>
        <mxCell id="cPtPqXqM4NVwdwL7rHtW-67" value="article" style="shape=table;startSize=30;container=1;collapsible=1;childLayout=tableLayout;fixedRows=1;rowLines=0;fontStyle=1;align=center;resizeLast=1;rounded=1;" vertex="1" parent="1">
          <mxGeometry x="150" y="490" width="180" height="220" as="geometry" />
        </mxCell>
        <mxCell id="cPtPqXqM4NVwdwL7rHtW-68" value="" style="shape=partialRectangle;collapsible=0;dropTarget=0;pointerEvents=0;fillColor=none;top=0;left=0;bottom=1;right=0;points=[[0,0.5],[1,0.5]];portConstraint=eastwest;rounded=1;" vertex="1" parent="cPtPqXqM4NVwdwL7rHtW-67">
          <mxGeometry y="30" width="180" height="30" as="geometry" />
        </mxCell>
        <mxCell id="cPtPqXqM4NVwdwL7rHtW-69" value="PK" style="shape=partialRectangle;connectable=0;fillColor=none;top=0;left=0;bottom=0;right=0;fontStyle=1;overflow=hidden;rounded=1;" vertex="1" parent="cPtPqXqM4NVwdwL7rHtW-68">
          <mxGeometry width="30" height="30" as="geometry" />
        </mxCell>
        <mxCell id="cPtPqXqM4NVwdwL7rHtW-70" value="article_id" style="shape=partialRectangle;connectable=0;fillColor=none;top=0;left=0;bottom=0;right=0;align=left;spacingLeft=6;fontStyle=5;overflow=hidden;rounded=1;" vertex="1" parent="cPtPqXqM4NVwdwL7rHtW-68">
          <mxGeometry x="30" width="150" height="30" as="geometry" />
        </mxCell>
        <mxCell id="cPtPqXqM4NVwdwL7rHtW-71" value="" style="shape=partialRectangle;collapsible=0;dropTarget=0;pointerEvents=0;fillColor=none;top=0;left=0;bottom=0;right=0;points=[[0,0.5],[1,0.5]];portConstraint=eastwest;rounded=1;" vertex="1" parent="cPtPqXqM4NVwdwL7rHtW-67">
          <mxGeometry y="60" width="180" height="30" as="geometry" />
        </mxCell>
        <mxCell id="cPtPqXqM4NVwdwL7rHtW-72" value="" style="shape=partialRectangle;connectable=0;fillColor=none;top=0;left=0;bottom=0;right=0;editable=1;overflow=hidden;rounded=1;" vertex="1" parent="cPtPqXqM4NVwdwL7rHtW-71">
          <mxGeometry width="30" height="30" as="geometry" />
        </mxCell>
        <mxCell id="cPtPqXqM4NVwdwL7rHtW-73" value="id" style="shape=partialRectangle;connectable=0;fillColor=none;top=0;left=0;bottom=0;right=0;align=left;spacingLeft=6;overflow=hidden;rounded=1;" vertex="1" parent="cPtPqXqM4NVwdwL7rHtW-71">
          <mxGeometry x="30" width="150" height="30" as="geometry" />
        </mxCell>
        <mxCell id="cPtPqXqM4NVwdwL7rHtW-74" value="" style="shape=partialRectangle;collapsible=0;dropTarget=0;pointerEvents=0;fillColor=none;top=0;left=0;bottom=0;right=0;points=[[0,0.5],[1,0.5]];portConstraint=eastwest;rounded=1;" vertex="1" parent="cPtPqXqM4NVwdwL7rHtW-67">
          <mxGeometry y="90" width="180" height="30" as="geometry" />
        </mxCell>
        <mxCell id="cPtPqXqM4NVwdwL7rHtW-75" value="" style="shape=partialRectangle;connectable=0;fillColor=none;top=0;left=0;bottom=0;right=0;editable=1;overflow=hidden;rounded=1;" vertex="1" parent="cPtPqXqM4NVwdwL7rHtW-74">
          <mxGeometry width="30" height="30" as="geometry" />
        </mxCell>
        <mxCell id="cPtPqXqM4NVwdwL7rHtW-76" value="user_id" style="shape=partialRectangle;connectable=0;fillColor=none;top=0;left=0;bottom=0;right=0;align=left;spacingLeft=6;overflow=hidden;rounded=1;" vertex="1" parent="cPtPqXqM4NVwdwL7rHtW-74">
          <mxGeometry x="30" width="150" height="30" as="geometry" />
        </mxCell>
        <mxCell id="cPtPqXqM4NVwdwL7rHtW-77" value="" style="shape=partialRectangle;collapsible=0;dropTarget=0;pointerEvents=0;fillColor=none;top=0;left=0;bottom=0;right=0;points=[[0,0.5],[1,0.5]];portConstraint=eastwest;rounded=1;" vertex="1" parent="cPtPqXqM4NVwdwL7rHtW-67">
          <mxGeometry y="120" width="180" height="30" as="geometry" />
        </mxCell>
        <mxCell id="cPtPqXqM4NVwdwL7rHtW-78" value="" style="shape=partialRectangle;connectable=0;fillColor=none;top=0;left=0;bottom=0;right=0;editable=1;overflow=hidden;rounded=1;" vertex="1" parent="cPtPqXqM4NVwdwL7rHtW-77">
          <mxGeometry width="30" height="30" as="geometry" />
        </mxCell>
        <mxCell id="cPtPqXqM4NVwdwL7rHtW-79" value="create_date" style="shape=partialRectangle;connectable=0;fillColor=none;top=0;left=0;bottom=0;right=0;align=left;spacingLeft=6;overflow=hidden;rounded=1;" vertex="1" parent="cPtPqXqM4NVwdwL7rHtW-77">
          <mxGeometry x="30" width="150" height="30" as="geometry" />
        </mxCell>
        <mxCell id="cPtPqXqM4NVwdwL7rHtW-86" value="" style="shape=partialRectangle;collapsible=0;dropTarget=0;pointerEvents=0;fillColor=none;top=0;left=0;bottom=0;right=0;points=[[0,0.5],[1,0.5]];portConstraint=eastwest;rounded=1;" vertex="1" parent="cPtPqXqM4NVwdwL7rHtW-67">
          <mxGeometry y="150" width="180" height="30" as="geometry" />
        </mxCell>
        <mxCell id="cPtPqXqM4NVwdwL7rHtW-87" value="" style="shape=partialRectangle;connectable=0;fillColor=none;top=0;left=0;bottom=0;right=0;editable=1;overflow=hidden;rounded=1;" vertex="1" parent="cPtPqXqM4NVwdwL7rHtW-86">
          <mxGeometry width="30" height="30" as="geometry" />
        </mxCell>
        <mxCell id="cPtPqXqM4NVwdwL7rHtW-88" value="art_text" style="shape=partialRectangle;connectable=0;fillColor=none;top=0;left=0;bottom=0;right=0;align=left;spacingLeft=6;overflow=hidden;rounded=1;" vertex="1" parent="cPtPqXqM4NVwdwL7rHtW-86">
          <mxGeometry x="30" width="150" height="30" as="geometry" />
        </mxCell>
        <mxCell id="cPtPqXqM4NVwdwL7rHtW-89" value="" style="shape=partialRectangle;collapsible=0;dropTarget=0;pointerEvents=0;fillColor=none;top=0;left=0;bottom=0;right=0;points=[[0,0.5],[1,0.5]];portConstraint=eastwest;rounded=1;" vertex="1" parent="cPtPqXqM4NVwdwL7rHtW-67">
          <mxGeometry y="180" width="180" height="30" as="geometry" />
        </mxCell>
        <mxCell id="cPtPqXqM4NVwdwL7rHtW-90" value="" style="shape=partialRectangle;connectable=0;fillColor=none;top=0;left=0;bottom=0;right=0;editable=1;overflow=hidden;rounded=1;" vertex="1" parent="cPtPqXqM4NVwdwL7rHtW-89">
          <mxGeometry width="30" height="30" as="geometry" />
        </mxCell>
        <mxCell id="cPtPqXqM4NVwdwL7rHtW-91" value="art_picture" style="shape=partialRectangle;connectable=0;fillColor=none;top=0;left=0;bottom=0;right=0;align=left;spacingLeft=6;overflow=hidden;rounded=1;" vertex="1" parent="cPtPqXqM4NVwdwL7rHtW-89">
          <mxGeometry x="30" width="150" height="30" as="geometry" />
        </mxCell>
        <mxCell id="cPtPqXqM4NVwdwL7rHtW-80" style="edgeStyle=orthogonalEdgeStyle;orthogonalLoop=1;jettySize=auto;html=1;entryX=0;entryY=0.5;entryDx=0;entryDy=0;startArrow=ERone;startFill=0;endArrow=ERmany;endFill=0;exitX=0;exitY=0.5;exitDx=0;exitDy=0;curved=1;" edge="1" parent="1" source="cPtPqXqM4NVwdwL7rHtW-60" target="cPtPqXqM4NVwdwL7rHtW-68">
          <mxGeometry relative="1" as="geometry" />
        </mxCell>
        <mxCell id="cPtPqXqM4NVwdwL7rHtW-81" style="edgeStyle=orthogonalEdgeStyle;orthogonalLoop=1;jettySize=auto;html=1;exitX=1;exitY=0.5;exitDx=0;exitDy=0;entryX=1;entryY=0.5;entryDx=0;entryDy=0;startArrow=ERone;startFill=0;endArrow=ERone;endFill=0;curved=1;" edge="1" parent="1" source="cPtPqXqM4NVwdwL7rHtW-63" target="cPtPqXqM4NVwdwL7rHtW-15">
          <mxGeometry relative="1" as="geometry" />
        </mxCell>
        <mxCell id="cPtPqXqM4NVwdwL7rHtW-82" style="edgeStyle=orthogonalEdgeStyle;orthogonalLoop=1;jettySize=auto;html=1;entryX=0;entryY=0.5;entryDx=0;entryDy=0;startArrow=ERone;startFill=0;endArrow=ERmany;endFill=0;curved=1;" edge="1" parent="1" source="cPtPqXqM4NVwdwL7rHtW-15" target="cPtPqXqM4NVwdwL7rHtW-74">
          <mxGeometry relative="1" as="geometry" />
        </mxCell>
        <mxCell id="cPtPqXqM4NVwdwL7rHtW-92" style="edgeStyle=orthogonalEdgeStyle;orthogonalLoop=1;jettySize=auto;html=1;entryX=1;entryY=0.5;entryDx=0;entryDy=0;startArrow=ERone;startFill=0;endArrow=ERmany;endFill=0;curved=1;" edge="1" parent="1" source="cPtPqXqM4NVwdwL7rHtW-31" target="cPtPqXqM4NVwdwL7rHtW-68">
          <mxGeometry relative="1" as="geometry" />
        </mxCell>
        <mxCell id="cPtPqXqM4NVwdwL7rHtW-99" style="edgeStyle=orthogonalEdgeStyle;orthogonalLoop=1;jettySize=auto;html=1;entryX=0;entryY=0.5;entryDx=0;entryDy=0;startArrow=ERmany;startFill=0;endArrow=ERone;endFill=0;curved=1;" edge="1" parent="1" source="cPtPqXqM4NVwdwL7rHtW-15" target="cPtPqXqM4NVwdwL7rHtW-44">
          <mxGeometry relative="1" as="geometry" />
        </mxCell>
        <mxCell id="cPtPqXqM4NVwdwL7rHtW-103" style="edgeStyle=orthogonalEdgeStyle;orthogonalLoop=1;jettySize=auto;html=1;exitX=0;exitY=0.5;exitDx=0;exitDy=0;entryX=1;entryY=0.5;entryDx=0;entryDy=0;startArrow=ERmany;startFill=0;endArrow=ERone;endFill=0;curved=1;" edge="1" parent="1" source="cPtPqXqM4NVwdwL7rHtW-8" target="cPtPqXqM4NVwdwL7rHtW-15">
          <mxGeometry relative="1" as="geometry" />
        </mxCell>
      </root>
    </mxGraphModel>
  </diagram>
</mxfile>
